<svg width="1012" height="194" viewBox="0 0 1012 194" fill="none" xmlns="http://www.w3.org/2000/svg">
<path d="M5.872 188.864C4.144 188.864 2.8 188.288 1.84 187.136C1.072 185.792 0.688001 184.256 0.688001 182.528C0.88 179.648 1.456 177.92 2.416 177.344C3.376 176.768 5.2 176.48 7.888 176.48C13.456 176.48 17.584 175.52 20.272 173.6C22.96 171.488 24.592 168.992 25.168 166.112C25.936 163.04 26.416 159.104 26.608 154.304V39.968C26.416 35.168 25.936 31.328 25.168 28.448C24.592 25.376 22.96 22.88 20.272 20.96C17.584 18.848 13.456 17.792 7.888 17.792H6.16C4.24 17.792 2.896 17.504 2.128 16.928C1.36 16.16 0.88 14.432 0.688001 11.744C0.688001 10.016 1.072 8.57599 1.84 7.42399C2.8 6.08 4.144 5.408 5.872 5.408C18.16 5.98399 29.488 6.27199 39.856 6.27199H151.888C163.216 6.27199 175.12 5.98399 187.6 5.408C189.328 5.408 190.576 6.08 191.344 7.42399C192.304 8.57599 192.784 10.016 192.784 11.744C192.592 14.624 191.92 16.352 190.768 16.928C189.808 17.504 187.984 17.792 185.296 17.792C179.728 17.792 175.6 18.848 172.912 20.96C170.224 22.88 168.496 25.376 167.728 28.448C167.152 31.328 166.768 35.168 166.576 39.968V154.304C166.768 159.104 167.152 163.04 167.728 166.112C168.496 168.992 170.224 171.488 172.912 173.6C175.6 175.52 179.728 176.48 185.296 176.48H187.024C188.944 176.48 190.288 176.864 191.056 177.632C192.016 178.208 192.592 179.84 192.784 182.528C192.784 184.256 192.304 185.792 191.344 187.136C190.576 188.288 189.328 188.864 187.6 188.864C175.312 188.288 163.312 188 151.6 188C141.232 188 129.808 188.288 117.328 188.864C115.6 188.864 114.256 188.288 113.296 187.136C112.528 185.792 112.144 184.256 112.144 182.528C112.336 179.648 112.912 177.92 113.872 177.344C115.024 176.768 116.848 176.48 119.344 176.48C124.912 176.48 129.04 175.52 131.728 173.6C134.416 171.488 136.144 168.992 136.912 166.112C137.68 163.232 138.16 159.296 138.352 154.304V17.792H73.84C67.696 17.6 63.28 18.464 60.592 20.384C57.904 22.304 56.272 24.704 55.696 27.584C55.312 30.272 55.12 34.4 55.12 39.968V154.304C55.312 159.104 55.696 163.04 56.272 166.112C57.04 168.992 58.768 171.488 61.456 173.6C64.144 175.52 68.272 176.48 73.84 176.48H75.568C77.488 176.48 78.832 176.864 79.6 177.632C80.368 178.208 80.848 179.84 81.04 182.528C81.04 184.256 80.56 185.792 79.6 187.136C78.832 188.288 77.584 188.864 75.856 188.864C63.376 188.288 51.472 188 40.144 188C29.776 188 18.352 188.288 5.872 188.864ZM440.624 188.864C439.088 188.864 437.84 188.288 436.88 187.136C435.92 185.792 435.44 184.256 435.44 182.528C435.632 179.648 436.208 177.92 437.168 177.344C438.32 176.768 440.24 176.48 442.928 176.48C448.496 176.48 452.624 175.52 455.312 173.6C458 171.488 459.632 168.992 460.208 166.112C460.976 163.04 461.456 159.104 461.648 154.304V39.968C461.456 35.168 460.976 31.328 460.208 28.448C459.632 25.376 458 22.88 455.312 20.96C452.624 18.848 448.496 17.792 442.928 17.792H441.2C439.28 17.792 437.84 17.504 436.88 16.928C436.112 16.16 435.632 14.432 435.44 11.744C435.44 10.016 435.92 8.57599 436.88 7.42399C437.84 6.08 439.088 5.408 440.624 5.408C453.104 5.98399 464.624 6.27199 475.184 6.27199H518.384C535.088 6.27199 551.216 9.72799 566.768 16.64C582.512 23.552 590.384 37.376 590.384 58.112C590.384 69.632 586.928 79.904 580.016 88.928C573.104 97.952 564.08 104.96 552.944 109.952C542 114.944 530.576 117.44 518.672 117.44C507.728 117.44 498.128 115.904 489.872 112.832V154.304C490.064 159.104 490.448 163.04 491.024 166.112C491.792 168.992 493.52 171.488 496.208 173.6C498.896 175.52 503.024 176.48 508.592 176.48H510.32C512.24 176.48 513.584 176.864 514.352 177.632C515.312 178.208 515.888 179.84 516.08 182.528C516.08 184.256 515.6 185.792 514.64 187.136C513.872 188.288 512.624 188.864 510.896 188.864C498.608 188.288 486.608 188 474.896 188C464.528 188 453.104 188.288 440.624 188.864ZM510.32 104.48C517.232 104.48 524.336 103.136 531.632 100.448C539.12 97.568 545.456 92.768 550.64 86.048C555.824 79.136 558.416 70.112 558.416 58.976C558.416 42.08 553.04 30.848 542.288 25.28C531.536 19.712 520.112 16.928 508.016 16.928C503.024 16.928 499.28 17.504 496.784 18.656C494.288 19.616 492.464 21.632 491.312 24.704C490.352 27.776 489.872 32.576 489.872 39.104V101.312C494.48 103.424 501.296 104.48 510.32 104.48ZM918.564 193.76C900.324 193.76 884.196 189.44 870.18 180.8C856.356 171.968 845.604 160.352 837.924 145.952C830.436 131.552 826.692 116.096 826.692 99.584C826.692 79.424 831.204 61.856 840.228 46.88C849.444 31.904 861.156 20.48 875.364 12.608C889.572 4.54399 903.972 0.511993 918.564 0.511993C936.996 0.511993 953.22 4.92799 967.236 13.76C981.444 22.4 992.292 33.92 999.78 48.32C1007.46 62.528 1011.3 77.888 1011.3 94.4C1011.3 114.56 1006.69 132.224 997.476 147.392C988.26 162.368 976.452 173.888 962.052 181.952C947.652 189.824 933.156 193.76 918.564 193.76ZM918.276 181.088C931.332 181.088 942.18 177.248 950.82 169.568C959.652 161.696 966.18 151.232 970.404 138.176C974.82 124.928 977.028 110.336 977.028 94.4C977.028 79.616 974.82 66.08 970.404 53.792C965.988 41.312 959.364 31.424 950.532 24.128C941.7 16.64 930.948 12.896 918.276 12.896C899.076 12.896 884.58 21.056 874.788 37.376C865.188 53.504 860.388 73.952 860.388 98.72C860.388 113.696 862.5 127.424 866.724 139.904C871.14 152.384 877.668 162.368 886.308 169.856C894.948 177.344 905.604 181.088 918.276 181.088Z" fill="#FFBA2F" fill-opacity="0.05"/>
</svg>
